<svg width="36" height="36" viewBox="0 0 36 36" fill="none" xmlns="http://www.w3.org/2000/svg">
<g clip-path="url(#clip0_0_703)">
<path d="M18 36C27.9411 36 36 27.9411 36 18C36 8.05887 27.9411 0 18 0C8.05887 0 0 8.05887 0 18C0 27.9411 8.05887 36 18 36Z" fill="#FBF6EF"/>
<path fill-rule="evenodd" clip-rule="evenodd" d="M8.14853 17.8099C13.3959 15.5237 16.895 14.0165 18.6457 13.2884C23.6445 11.2092 24.6832 10.848 25.3602 10.8361C25.5091 10.8335 25.842 10.8704 26.0577 11.0454C26.3776 11.305 26.3794 11.8685 26.3439 12.2414C26.073 15.0876 24.9009 21.9947 24.3046 25.1825C24.0522 26.5314 23.5554 26.9837 23.0745 27.0279C22.0292 27.1241 21.2354 26.3371 20.223 25.6735C18.6388 24.635 17.7438 23.9885 16.206 22.9752C14.4288 21.804 15.5809 21.1604 16.5937 20.1085C16.8588 19.8332 21.4643 15.644 21.5535 15.264C21.5646 15.2165 21.575 15.0393 21.4697 14.9458C21.3645 14.8522 21.2091 14.8842 21.0971 14.9096C20.9382 14.9457 18.4073 16.6185 13.5046 19.928C12.7862 20.4213 12.1355 20.6616 11.5526 20.649C10.9098 20.6352 9.67361 20.2856 8.75455 19.9869C7.6273 19.6205 6.73138 19.4267 6.80943 18.8044C6.85007 18.4802 7.29641 18.1488 8.14853 17.8099Z" fill="#002B45"/>
</g>
<defs>
<clipPath id="clip0_0_703">
<rect width="36" height="36" fill="white"/>
</clipPath>
</defs>
</svg>
