<svg width="36" height="36" viewBox="0 0 36 36" fill="none" xmlns="http://www.w3.org/2000/svg">
<g clip-path="url(#clip0_0_711)">
<path d="M18.0045 0H17.9955C8.07075 0 0 8.073 0 18C0 21.9375 1.269 25.587 3.42675 28.5503L1.1835 35.2373L8.10225 33.0255C10.9485 34.911 14.3438 36 18.0045 36C27.9292 36 36 27.9247 36 18C36 8.07525 27.9292 0 18.0045 0Z" fill="#FBF6EF"/>
<path d="M28.4782 25.4184C28.044 26.6447 26.3205 27.6617 24.9457 27.9587C24.0052 28.1589 22.7767 28.3187 18.6412 26.6042C13.3515 24.4127 9.94499 19.0374 9.67949 18.6887C9.42524 18.3399 7.54199 15.8424 7.54199 13.2594C7.54199 10.6764 8.85374 9.41866 9.38249 8.87866C9.81674 8.43541 10.5345 8.23291 11.223 8.23291C11.4457 8.23291 11.646 8.24416 11.826 8.25316C12.3547 8.27566 12.6202 8.30716 12.969 9.14191C13.4032 10.1882 14.4607 12.7712 14.5867 13.0367C14.715 13.3022 14.8432 13.6622 14.6632 14.0109C14.4945 14.3709 14.346 14.5307 14.0805 14.8367C13.815 15.1427 13.563 15.3767 13.2975 15.7052C13.0545 15.9909 12.78 16.2969 13.086 16.8257C13.392 17.3432 14.4495 19.0689 16.0065 20.4549C18.0157 22.2437 19.6447 22.8152 20.2275 23.0582C20.6617 23.2382 21.1792 23.1954 21.4965 22.8579C21.8992 22.4237 22.3965 21.7037 22.9027 20.9949C23.2627 20.4864 23.7172 20.4234 24.1942 20.6034C24.6802 20.7722 27.252 22.0434 27.7807 22.3067C28.3095 22.5722 28.6582 22.6982 28.7865 22.9209C28.9125 23.1437 28.9125 24.1899 28.4782 25.4184Z" fill="#002B45"/>
</g>
<defs>
<clipPath id="clip0_0_711">
<rect width="36" height="36" fill="white"/>
</clipPath>
</defs>
</svg>
